<svg width="1024" height="1024" viewBox="0 0 1024 1024" fill="none" xmlns="http://www.w3.org/2000/svg">
<path d="M278 251.48L252.24 329.04H303.48L278 251.48ZM195.96 401V387.84L218.92 384.48L277.44 214.24H300.4L358.92 385.88L377.96 388.12V401H297.04V388.12L321.68 385.04L308.24 343.6H247.2L233.76 384.2L258.12 387.84V401H195.96ZM495.591 404.36C488.124 404.36 482.057 402.493 477.391 398.76C472.724 395.027 469.551 389.893 467.871 383.36C460.964 390.453 454.711 395.867 449.111 399.6C443.511 403.147 436.231 404.92 427.271 404.92C416.817 404.92 407.951 401.933 400.671 395.96C393.577 389.8 390.031 381.027 390.031 369.64C390.031 363.667 391.431 358.16 394.231 353.12C397.031 347.893 401.977 343.04 409.071 338.56C416.351 334.08 426.711 329.693 440.151 325.4C443.884 324.093 448.084 322.787 452.751 321.48C457.417 320.173 462.177 318.867 467.031 317.56V309.72C467.031 296.653 465.164 287.88 461.431 283.4C457.884 278.733 451.537 276.4 442.391 276.4C440.711 276.4 438.844 276.493 436.791 276.68C434.924 276.867 432.964 277.147 430.911 277.52L427.551 292.92C426.804 299.64 424.844 304.587 421.671 307.76C418.497 310.933 414.577 312.52 409.911 312.52C400.951 312.52 395.724 308.32 394.231 299.92C395.911 288.72 401.884 279.76 412.151 273.04C422.604 266.32 436.324 262.96 453.311 262.96C469.551 262.96 481.404 266.88 488.871 274.72C496.337 282.373 500.071 295.347 500.071 313.64V374.68C500.071 383.08 502.777 387.28 508.191 387.28C511.737 387.28 515.004 385.227 517.991 381.12L524.431 386.72C521.071 393.067 517.057 397.64 512.391 400.44C507.911 403.053 502.311 404.36 495.591 404.36ZM422.791 363.76C422.791 371.04 424.657 376.36 428.391 379.72C432.311 382.893 437.071 384.48 442.671 384.48C445.844 384.48 449.017 383.733 452.191 382.24C455.364 380.747 460.311 377.667 467.031 373V328.76C463.111 330.067 459.377 331.28 455.831 332.4C452.471 333.52 449.577 334.547 447.151 335.48C437.817 339.213 431.377 343.507 427.831 348.36C424.471 353.213 422.791 358.347 422.791 363.76Z" fill="#311D1D"/>
</svg>
