<svg width="1024" height="1024" viewBox="0 0 1024 1024" fill="none" xmlns="http://www.w3.org/2000/svg">
<path d="M677.718 585.92C684.331 585.92 691.851 586.56 700.278 587.84C708.704 589.12 717.238 591.627 725.878 595.36C734.624 599.093 742.731 604.64 750.198 612C757.664 619.253 763.638 628.8 768.118 640.64C772.704 652.48 774.998 667.253 774.998 684.96C774.998 702.56 772.704 717.333 768.118 729.28C763.638 741.12 757.664 750.72 750.198 758.08C742.731 765.333 734.624 770.827 725.878 774.56C717.238 778.293 708.704 780.8 700.278 782.08C691.851 783.36 684.331 784 677.718 784H638.358C621.504 784 613.078 775.52 613.078 758.56V611.2C613.078 594.347 621.504 585.92 638.358 585.92H677.718ZM677.398 752.32C684.864 752.32 691.798 751.093 698.198 748.64C704.704 746.08 710.358 742.133 715.158 736.8C720.064 731.467 723.851 724.533 726.518 716C729.291 707.36 730.678 697.013 730.678 684.96C730.678 672.8 729.291 662.453 726.518 653.92C723.851 645.387 720.064 638.453 715.158 633.12C710.358 627.787 704.704 623.893 698.198 621.44C691.798 618.88 684.864 617.6 677.398 617.6H656.918V752.32H677.398Z" fill="white"/>
</svg>
