<svg width="1024" height="1024" viewBox="0 0 1024 1024" fill="none" xmlns="http://www.w3.org/2000/svg">
<path d="M337 130.5H558C594.412 130.5 621.69 130.5 643.343 132.27C664.99 134.038 680.97 137.572 694.792 144.614C719.159 157.03 738.97 176.841 751.386 201.208C758.428 215.03 761.962 231.01 763.73 252.657C765.5 274.31 765.5 301.588 765.5 338V688C765.5 724.412 765.5 751.69 763.73 773.343C761.962 794.99 758.428 810.97 751.386 824.792C738.97 849.159 719.159 868.97 694.792 881.386C680.97 888.428 664.99 891.962 643.343 893.73C621.69 895.5 594.412 895.5 558 895.5H337C300.588 895.5 273.31 895.5 251.657 893.73C230.01 891.962 214.03 888.428 200.208 881.386C175.841 868.97 156.03 849.159 143.614 824.792C136.572 810.97 133.038 794.99 131.27 773.343C129.5 751.69 129.5 724.412 129.5 688V338C129.5 301.588 129.5 274.31 131.27 252.657C133.038 231.01 136.572 215.03 143.614 201.208C156.03 176.841 175.841 157.03 200.208 144.614C214.03 137.572 230.01 134.038 251.657 132.27C273.31 130.5 300.588 130.5 337 130.5Z" fill="#AC5B5B" stroke="black"/>
</svg>
