<svg width="1024" height="1024" viewBox="0 0 1024 1024" fill="none" xmlns="http://www.w3.org/2000/svg">
<path d="M272 244.16L248.08 316.18H295.66L272 244.16ZM195.82 383V370.78L217.14 367.66L271.48 209.58H292.8L347.14 368.96L364.82 371.04V383H289.68V371.04L312.56 368.18L300.08 329.7H243.4L230.92 367.4L253.54 370.78V383H195.82ZM474.048 386.12C467.115 386.12 461.482 384.387 457.148 380.92C452.815 377.453 449.868 372.687 448.308 366.62C441.895 373.207 436.088 378.233 430.888 381.7C425.688 384.993 418.928 386.64 410.608 386.64C400.902 386.64 392.668 383.867 385.908 378.32C379.322 372.6 376.028 364.453 376.028 353.88C376.028 348.333 377.328 343.22 379.928 338.54C382.528 333.687 387.122 329.18 393.708 325.02C400.468 320.86 410.088 316.787 422.568 312.8C426.035 311.587 429.935 310.373 434.268 309.16C438.602 307.947 443.022 306.733 447.528 305.52V298.24C447.528 286.107 445.795 277.96 442.328 273.8C439.035 269.467 433.142 267.3 424.648 267.3C423.088 267.3 421.355 267.387 419.448 267.56C417.715 267.733 415.895 267.993 413.988 268.34L410.868 282.64C410.175 288.88 408.355 293.473 405.408 296.42C402.462 299.367 398.822 300.84 394.488 300.84C386.168 300.84 381.315 296.94 379.928 289.14C381.488 278.74 387.035 270.42 396.568 264.18C406.275 257.94 419.015 254.82 434.788 254.82C449.868 254.82 460.875 258.46 467.808 265.74C474.742 272.847 478.208 284.893 478.208 301.88V358.56C478.208 366.36 480.722 370.26 485.748 370.26C489.042 370.26 492.075 368.353 494.848 364.54L500.828 369.74C497.708 375.633 493.982 379.88 489.648 382.48C485.488 384.907 480.288 386.12 474.048 386.12ZM406.448 348.42C406.448 355.18 408.182 360.12 411.648 363.24C415.288 366.187 419.708 367.66 424.908 367.66C427.855 367.66 430.802 366.967 433.748 365.58C436.695 364.193 441.288 361.333 447.528 357V315.92C443.888 317.133 440.422 318.26 437.128 319.3C434.008 320.34 431.322 321.293 429.068 322.16C420.402 325.627 414.422 329.613 411.128 334.12C408.008 338.627 406.448 343.393 406.448 348.42Z" fill="#311D1D"/>
</svg>
