<svg width="1024" height="1024" viewBox="0 0 1024 1024" fill="none" xmlns="http://www.w3.org/2000/svg">
<path d="M700.94 617.68C706.727 617.68 713.307 618.24 720.68 619.36C728.054 620.48 735.52 622.673 743.08 625.94C750.734 629.207 757.827 634.06 764.36 640.5C770.894 646.847 776.12 655.2 780.04 665.56C784.054 675.92 786.06 688.847 786.06 704.34C786.06 719.74 784.054 732.667 780.04 743.12C776.12 753.48 770.894 761.88 764.36 768.32C757.827 774.667 750.734 779.473 743.08 782.74C735.52 786.007 728.054 788.2 720.68 789.32C713.307 790.44 706.727 791 700.94 791H666.5C651.754 791 644.38 783.58 644.38 768.74V639.8C644.38 625.053 651.754 617.68 666.5 617.68H700.94ZM700.66 763.28C707.194 763.28 713.26 762.207 718.86 760.06C724.554 757.82 729.5 754.367 733.7 749.7C737.994 745.033 741.307 738.967 743.64 731.5C746.067 723.94 747.28 714.887 747.28 704.34C747.28 693.7 746.067 684.647 743.64 677.18C741.307 669.713 737.994 663.647 733.7 658.98C729.5 654.313 724.554 650.907 718.86 648.76C713.26 646.52 707.194 645.4 700.66 645.4H682.74V763.28H700.66Z" fill="white"/>
</svg>
