<svg width="32" height="32" viewBox="0 0 32 32" fill="none" xmlns="http://www.w3.org/2000/svg">
<g clip-path="url(#clip0_137_961)">
<path fill-rule="evenodd" clip-rule="evenodd" d="M22 2H5C3.34315 2 2 3.34315 2 5V20.9996C2.83566 20.3719 3.87439 20 5 20H6V22H5C3.34315 22 2 23.3431 2 25C2 26.6569 3.34315 28 5 28H6V30H5C2.23858 30 0 27.7614 0 25V5C0 2.23858 2.23858 0 5 0H22C23.1046 0 24 0.895431 24 2V6H22V2ZM5 4.77778C5 4.34822 4.77614 4 4.5 4C4.22386 4 4 4.34822 4 4.77778L4 17.2222C4 17.6518 4.22386 18 4.5 18C4.77614 18 5 17.6518 5 17.2222L5 4.77778ZM12 8C9.79086 8 8 9.79086 8 12V28C8 30.2091 9.79086 32 12 32H28C30.2091 32 32 30.2091 32 28V12C32 9.79086 30.2091 8 28 8H12ZM13 11C11.8954 11 11 11.8954 11 13V27C11 28.1046 11.8954 29 13 29H27C28.1046 29 29 28.1046 29 27V13C29 11.8954 28.1046 11 27 11H13ZM20 17H18V23H20C21.1046 23 22 22.1046 22 21V19C22 17.8954 21.1046 17 20 17ZM18 14H15V17V23V26H18H20C22.7614 26 25 23.7614 25 21V19C25 16.2386 22.7614 14 20 14H18Z" fill="white"/>
</g>
<defs>
<clipPath id="clip0_137_961">
<rect width="32" height="32" fill="white"/>
</clipPath>
</defs>
</svg>
